<svg id="Layer_1" data-name="Layer 1" xmlns="http://www.w3.org/2000/svg" viewBox="0 0 214.71 223.04"><defs><style>.cls-1{fill:#fff;}.cls-2{fill:#f44336;}.cls-3{fill:none;}</style></defs><title>del_filter</title><path class="cls-1" d="M-250,41.32a34,34,0,0,0-18.46-30.21V7.54A15.5,15.5,0,0,0-284-8a15.5,15.5,0,0,0-15.5,15.5v3.57A34,34,0,0,0-318,41.32a34,34,0,0,0,18.46,30.2V199.6A15.5,15.5,0,0,0-284,215.08h0a15.5,15.5,0,0,0,15.5-15.5V71.52A34,34,0,0,0-250,41.32Zm-26,0a8,8,0,0,1-8,8,8,8,0,0,1-8-8,8,8,0,0,1,8-8A8,8,0,0,1-276,41.32Z" transform="translate(318.03 7.96)"/><circle class="cls-2" cx="-156.52" cy="45.29" r="53.21" transform="translate(303.44 -26.79) rotate(-13.28)"/><circle class="cls-3" cx="91" cy="111.56" r="8"/><path class="cls-3" d="M-170.06,158.38a8,8,0,0,0-8,8,8,8,0,0,0,8,8,8,8,0,0,0,8-8h0v0A8,8,0,0,0-170.06,158.38Z" transform="translate(318.03 7.96)"/><path class="cls-1" d="M-156.52,110.49a64.9,64.9,0,0,1-29-6.82v32.51A34,34,0,0,0-204,166.38a34,34,0,0,0,18.46,30.22v3A15.5,15.5,0,0,0-170,215.08a15.5,15.5,0,0,0,15.5-15.5v-3a34,34,0,0,0,18.5-30.2,34,34,0,0,0-18.49-30.2V110.44C-155.19,110.46-155.85,110.49-156.52,110.49Zm-5.54,55.89a8,8,0,0,1-8,8,8,8,0,0,1-8-8,8,8,0,0,1,8-8,8,8,0,0,1,8,8v0Z" transform="translate(318.03 7.96)"/><path class="cls-1" d="M-221.73,45.29a64.85,64.85,0,0,1,10.24-35V7.58A15.5,15.5,0,0,0-227-7.92a15.5,15.5,0,0,0-15.5,15.5V73.4A34,34,0,0,0-261,103.6a34,34,0,0,0,18.46,30.2v65.8A15.5,15.5,0,0,0-227,215.08h0a15.5,15.5,0,0,0,15.5-15.48V133.78A34,34,0,0,0-193,103.6a34.28,34.28,0,0,0-.31-4.54A65.16,65.16,0,0,1-221.73,45.29ZM-227,111.6a8,8,0,0,1-8-8,8,8,0,0,1,8-8,8,8,0,0,1,8,8A8,8,0,0,1-227,111.6Z" transform="translate(318.03 7.96)"/><rect class="cls-1" x="-164.46" y="13.37" width="15.96" height="63.84" transform="translate(240.17 -89.43) rotate(-45)"/><rect class="cls-1" x="-188.44" y="37.35" width="63.84" height="15.96" transform="translate(240.13 -89.44) rotate(-45)"/></svg>