<svg height="512" viewBox="0 0 64 64" width="512" xmlns="http://www.w3.org/2000/svg"><g id="File"><path d="m9 57a4 4 0 0 0 4 4h38a4 4 0 0 0 4-4v-44a4 4 0 0 0 -4-4h-8v4h8v44h-38v-44h8v-4h-8a4 4 0 0 0 -4 4z" fill="#9bc9ff"/><path d="m21 15h22v-6a2 2 0 0 0 -2-2h-3.35a5.99 5.99 0 0 0 -11.3 0h-3.35a2 2 0 0 0 -2 2z" fill="#9bc9ff"/><circle cx="21" cy="35" fill="#9bc9ff" r="2"/><circle cx="21" cy="25" fill="#9bc9ff" r="2"/><circle cx="21" cy="45" fill="#9bc9ff" r="2"/><g fill="#1e81ce"><path d="m51 8h-7.184a3 3 0 0 0 -2.816-2h-2.679a6.994 6.994 0 0 0 -12.642 0h-2.679a3 3 0 0 0 -2.816 2h-7.184a5.006 5.006 0 0 0 -5 5v44a5.006 5.006 0 0 0 5 5h38a5.006 5.006 0 0 0 5-5v-44a5.006 5.006 0 0 0 -5-5zm-30 8h22a1 1 0 0 0 1-1v-1h6v42h-36v-42h6v1a1 1 0 0 0 1 1zm2-8h3.35a1 1 0 0 0 .944-.671 4.991 4.991 0 0 1 9.412 0 1 1 0 0 0 .944.671h3.35a1 1 0 0 1 1 1v5h-20v-5a1 1 0 0 1 1-1zm31 49a3 3 0 0 1 -3 3h-38a3 3 0 0 1 -3-3v-44a3 3 0 0 1 3-3h7v2h-7a1 1 0 0 0 -1 1v44a1 1 0 0 0 1 1h38a1 1 0 0 0 1-1v-44a1 1 0 0 0 -1-1h-7v-2h7a3 3 0 0 1 3 3z"/><path d="m21 38a3 3 0 1 1 3-3 3 3 0 0 1 -3 3zm0-4a1 1 0 1 0 1 1 1 1 0 0 0 -1-1z"/><path d="m21 28a3 3 0 1 1 3-3 3 3 0 0 1 -3 3zm0-4a1 1 0 1 0 1 1 1 1 0 0 0 -1-1z"/><path d="m21 48a3 3 0 1 1 3-3 3 3 0 0 1 -3 3zm0-4a1 1 0 1 0 1 1 1 1 0 0 0 -1-1z"/><path d="m45 26h-16a1 1 0 0 1 0-2h16a1 1 0 0 1 0 2z"/><path d="m45 36h-16a1 1 0 0 1 0-2h16a1 1 0 0 1 0 2z"/><path d="m45 46h-16a1 1 0 0 1 0-2h16a1 1 0 0 1 0 2z"/></g></g></svg>