<svg id="Layer_1" data-name="Layer 1" xmlns="http://www.w3.org/2000/svg" viewBox="0 0 181.95 223.04"><defs><style>.cls-1{fill:#fff;}</style></defs><title>filter</title><path class="cls-1" d="M-653.49-164.42V-293.06a15.5,15.5,0,0,0-15.5-15.5,15.5,15.5,0,0,0-15.5,15.5v128.64a34,34,0,0,0-18.46,30.2A34,34,0,0,0-684.49-104v3A15.5,15.5,0,0,0-669-85.52a15.5,15.5,0,0,0,15.5-15.5v-3A34,34,0,0,0-635-134.22,34,34,0,0,0-653.49-164.42Zm-7.54,30.2a8,8,0,0,1-8,8,8,8,0,0,1-8-8,8,8,0,0,1,8-8A8,8,0,0,1-661-134.22Z" transform="translate(816.97 308.56)"/><path class="cls-1" d="M-749-259.28a34,34,0,0,0-18.46-30.21v-3.57a15.5,15.5,0,0,0-15.5-15.5,15.5,15.5,0,0,0-15.5,15.5v3.57A34,34,0,0,0-817-259.28a34,34,0,0,0,18.46,30.2V-101A15.5,15.5,0,0,0-783-85.52a15.5,15.5,0,0,0,15.5-15.5V-229.08A34,34,0,0,0-749-259.28Zm-26,0a8,8,0,0,1-8,8,8,8,0,0,1-8-8,8,8,0,0,1,8-8A8,8,0,0,1-775-259.28Z" transform="translate(816.97 308.56)"/><path class="cls-1" d="M-692-197a34,34,0,0,0-18.46-30.2v-65.82a15.5,15.5,0,0,0-15.5-15.5,15.5,15.5,0,0,0-15.5,15.5v65.82A34,34,0,0,0-760-197a34,34,0,0,0,18.46,30.2V-101A15.5,15.5,0,0,0-726-85.52,15.5,15.5,0,0,0-710.5-101v-65.82A34,34,0,0,0-692-197Zm-26,0a8,8,0,0,1-8,8,8,8,0,0,1-8-8,8,8,0,0,1,8-8A8,8,0,0,1-718-197Z" transform="translate(816.97 308.56)"/></svg>