<svg id="Capa_1" enable-background="new 0 0 512 512" height="512" viewBox="0 0 512 512" width="512" xmlns="http://www.w3.org/2000/svg"><g><g><g><g><path d="m306.012 187.639c-1.919 0-3.839-.732-5.303-2.197-11.921-11.921-27.798-18.485-44.709-18.485s-32.788 6.564-44.709 18.485c-2.929 2.93-7.678 2.929-10.606.001-2.929-2.93-2.929-7.678 0-10.606 14.753-14.755 34.398-22.88 55.315-22.88s40.562 8.125 55.315 22.88c2.929 2.929 2.929 7.677 0 10.606-1.464 1.463-3.384 2.196-5.303 2.196z" fill="#00f2a6"/></g><g><path d="m334.036 162.022c-1.919 0-3.839-.732-5.303-2.196-40.105-40.105-105.36-40.105-145.466 0-2.929 2.929-7.678 2.927-10.606 0-2.929-2.93-2.929-7.678 0-10.607 45.953-45.953 120.726-45.953 166.679 0 2.929 2.93 2.929 7.678 0 10.607-1.465 1.463-3.384 2.196-5.304 2.196z" fill="#00f2a6"/></g><g><path d="m279.262 214.39c-1.919 0-3.839-.732-5.303-2.197-4.797-4.797-11.175-7.438-17.958-7.438s-13.162 2.642-17.958 7.438c-2.929 2.93-7.678 2.929-10.606.001-2.929-2.929-2.929-7.678 0-10.606 7.63-7.631 17.774-11.833 28.565-11.833s20.935 4.202 28.565 11.833c2.929 2.929 2.929 7.678 0 10.606-1.466 1.463-3.386 2.196-5.305 2.196z" fill="#00c285"/></g></g><g><circle cx="256" cy="235.144" fill="#00c285" r="7.5"/></g></g><g><g><g><path d="m105.297 245.291v-160.139c0-7.44-6.087-13.527-13.527-13.527-7.44 0-13.527 6.087-13.527 13.527v160.139z" fill="#acacac"/></g><g><path d="m433.758 245.291v-160.139c0-7.44-6.087-13.527-13.527-13.527-7.44 0-13.527 6.087-13.527 13.527v160.139z" fill="#acacac"/></g><g fill="#00f2a6"><path d="m109.27 286.974v-39.682c0-1.657-1.343-3-3-3h-29c-1.657 0-3 1.343-3 3v39.682z"/><path d="m437.73 286.974v-39.682c0-1.657-1.343-3-3-3h-29c-1.657 0-3 1.343-3 3v39.682z"/></g></g><g><path d="m43.178 402.048h89.974v24.327h-89.974z" fill="#838383"/><path d="m43.178 402.048h30v24.327h-30z" fill="#5a5a5a"/><path d="m378.848 402.048h89.974v24.327h-89.974z" fill="#838383"/><path d="m378.848 402.048h30v24.327h-30z" fill="#5a5a5a"/><path d="m483.066 285.973h-454.132c-8.284 0-15 6.716-15 15v87.075c0 8.284 6.716 15 15 15h454.131c8.284 0 15-6.716 15-15v-16.347l-.007-.019c-6.451-17.547-6.449-36.817.007-54.363v-16.347c.001-8.283-6.715-14.999-14.999-14.999z" fill="#acacac"/></g><path d="m50.601 388.048v-87.075c0-8.284 6.716-15 15-15h-36.667c-8.284 0-15 6.716-15 15v87.075c0 8.284 6.716 15 15 15h36.667c-8.284 0-15-6.715-15-15z" fill="#9c9c9c"/><g><path d="m498.066 317.32h-133.548c-15.017 0-27.191 12.174-27.191 27.191 0 15.017 12.174 27.19 27.191 27.19h133.547v-54.381z" fill="#eaf6ff"/></g><g><path d="m367.328 344.511c0-15.017 12.174-27.191 27.191-27.191h-30c-15.017 0-27.191 12.174-27.191 27.191s12.174 27.19 27.191 27.19h30c-15.018 0-27.191-12.173-27.191-27.19z" fill="#d8ecfe"/></g><g><circle cx="76.319" cy="344.511" fill="#6cf5c2" r="21.681"/></g><g><g><path d="m146.23 348.759h-14.23c-4.142 0-7.5-3.357-7.5-7.5s3.358-7.5 7.5-7.5h14.23c4.142 0 7.5 3.357 7.5 7.5s-3.358 7.5-7.5 7.5z" fill="#00f2a6"/></g><g><path d="m191.23 348.759h-14.23c-4.142 0-7.5-3.357-7.5-7.5s3.358-7.5 7.5-7.5h14.23c4.142 0 7.5 3.357 7.5 7.5s-3.358 7.5-7.5 7.5z" fill="#00f2a6"/></g><g><path d="m236.23 348.759h-14.23c-4.142 0-7.5-3.357-7.5-7.5s3.358-7.5 7.5-7.5h14.23c4.142 0 7.5 3.357 7.5 7.5s-3.358 7.5-7.5 7.5z" fill="#00f2a6"/></g><g><path d="m281.23 348.759h-14.23c-4.142 0-7.5-3.357-7.5-7.5s3.358-7.5 7.5-7.5h14.23c4.142 0 7.5 3.357 7.5 7.5s-3.358 7.5-7.5 7.5z" fill="#5a5a5a"/></g></g><g><path d="m504.5 440.375h-497c-4.142 0-7.5-3.357-7.5-7.5s3.358-7.5 7.5-7.5h497c4.142 0 7.5 3.357 7.5 7.5s-3.358 7.5-7.5 7.5z" fill="#9c9c9c"/></g><g><g><circle cx="382.5" cy="343.75" fill="#26a6fe" r="7.5"/></g><g><circle cx="416.5" cy="343.75" fill="#26a6fe" r="7.5"/></g><g><circle cx="450.5" cy="343.75" fill="#8ac9fe" r="7.5"/></g></g></g></g></svg>