<svg id="Capa_1" enable-background="new 0 0 512 512" height="512" viewBox="0 0 512 512" width="512" xmlns="http://www.w3.org/2000/svg"><path d="m418.563 485.724-29.66-29.66c-4.24-4.24-5.896-10.421-4.344-16.213l9.177-34.249c1.552-5.792 6.076-10.317 11.868-11.868l34.249-9.177c5.792-1.552 11.973.104 16.213 4.344l29.656 29.657c9.756 9.756 26.478 2.732 26.276-11.063-.393-26.905-11.261-53.682-32.626-73.686-26.457-24.772-63.106-32.86-96.233-24.344-7.65 1.966-15.767-.32-21.352-5.906l-153.346-153.347c-5.585-5.585-7.872-13.702-5.906-21.352 8.516-33.127.428-69.775-24.344-96.233-20.004-21.364-46.781-32.232-73.686-32.625-13.795-.202-20.819 16.52-11.063 26.276l29.657 29.657c4.24 4.24 5.896 10.421 4.344 16.213l-9.177 34.249c-1.552 5.792-6.076 10.316-11.868 11.868l-34.249 9.177c-5.792 1.552-11.972-.104-16.213-4.344l-29.66-29.66c-9.71-9.71-26.457-2.804-26.275 10.928.343 25.884 10.381 51.659 30.133 71.41 26.782 26.782 64.637 35.706 98.821 26.814 7.634-1.986 15.747.338 21.324 5.916l153.215 153.215c5.578 5.578 7.901 13.69 5.916 21.324-8.891 34.184.032 72.039 26.814 98.821 19.752 19.752 45.527 29.79 71.41 30.133 13.732.182 20.639-16.565 10.929-26.275z" fill="#8eafe2"/><path d="m361.788 303.559-153.347-153.347c-4.959-4.959-7.31-11.914-6.4-18.766-13.823 16.316-24.848 35.136-32.229 55.141l-11.173 30.279 136.495 136.494 30.278-11.172c20.007-7.383 38.827-18.408 55.142-32.229-6.852.91-13.807-1.441-18.766-6.4z" fill="#6a96d7"/><path d="m475.796 85.138-48.934-48.934c-24.816-24.816-65.051-24.816-89.867 0l-104.566 104.567c-15.786 15.786-27.963 34.807-35.692 55.752l-14.099 38.211 94.629 94.629 38.211-14.099c20.945-7.728 39.965-19.905 55.752-35.692l104.566-104.566c24.816-24.817 24.816-65.052 0-89.868z" fill="#a3defe"/><path d="m276.818 96.381-44.389 44.389c-15.786 15.786-27.963 34.807-35.692 55.752l-14.1 38.211 94.629 94.629 38.211-14.1c9.644-3.558 18.872-8.071 27.573-13.434-56.721-44.755-74.111-137.768-66.232-205.447z" fill="#7acefa"/><path d="m209.598 269.193c-1.919 0-3.839-.733-5.304-2.197-2.929-2.929-2.929-7.678 0-10.606l34.757-34.757c2.93-2.929 7.678-2.929 10.607 0s2.929 7.678 0 10.607l-34.757 34.757c-1.465 1.463-3.384 2.196-5.303 2.196z" fill="#a3defe"/><path d="m250.307 309.903c-1.92 0-3.839-.732-5.304-2.197-2.929-2.929-2.929-7.678 0-10.607l34.758-34.757c2.931-2.93 7.679-2.929 10.607 0 2.929 2.929 2.929 7.678 0 10.606l-34.758 34.757c-1.465 1.465-3.384 2.198-5.303 2.198z" fill="#a3defe"/><path d="m142.647 411.454 69.853-69.854-42.1-42.1-69.853 69.853c-2.495 2.495-5.679 4.185-9.144 4.852l-33.9 6.529c-5.326 1.026-9.885 4.443-12.363 9.268l-25.596 49.824c-3.505 6.822-2.203 15.126 3.22 20.549l28.862 28.862c5.423 5.423 13.727 6.724 20.549 3.22l49.824-25.596c4.824-2.478 8.242-7.037 9.268-12.363l6.529-33.9c.666-3.465 2.356-6.65 4.851-9.144z" fill="#c6c6c6"/><path d="m247.967 377.067-113.034-113.034c-10.632-10.632-10.632-27.87 0-38.502 10.632-10.632 27.87-10.632 38.502 0l113.034 113.034c10.632 10.632 10.632 27.87 0 38.502-10.632 10.632-27.87 10.632-38.502 0z" fill="#f7ef87"/><path d="m164.508 301.94h31.564v59.54h-31.564z" fill="#9aa3b1" transform="matrix(.707 -.707 .707 .707 -181.748 224.64)"/><path d="m399.77 112.23c-11.823-11.823-30.991-11.823-42.813 0l-44.757 44.757c-11.823 11.823-11.823 30.991 0 42.813 11.823 11.822 30.991 11.822 42.813 0l44.757-44.757c11.822-11.822 11.822-30.99 0-42.813z" fill="#fff"/></svg>